<svg width="25" height="25" viewBox="0 0 25 25" fill="none" xmlns="http://www.w3.org/2000/svg">
<path d="M14.5819 17.691C14.8166 17.7988 15.081 17.8234 15.3315 17.7608C15.5821 17.6982 15.8039 17.5522 15.9603 17.3467L16.3637 16.8183C16.5754 16.536 16.8499 16.3069 17.1655 16.1491C17.4811 15.9913 17.8291 15.9092 18.1819 15.9092H21.591C22.1938 15.9092 22.7718 16.1486 23.198 16.5748C23.6243 17.0011 23.8637 17.5791 23.8637 18.1819V21.591C23.8637 22.1938 23.6243 22.7718 23.198 23.198C22.7718 23.6243 22.1938 23.8637 21.591 23.8637C16.1661 23.8637 10.9634 21.7087 7.12745 17.8727C3.29148 14.0367 1.13645 8.83406 1.13645 3.40918C1.13645 2.80642 1.3759 2.22834 1.80212 1.80212C2.22834 1.3759 2.80642 1.13645 3.40918 1.13645H6.81827C7.42103 1.13645 7.99911 1.3759 8.42533 1.80212C8.85155 2.22834 9.09099 2.80642 9.09099 3.40918V6.81827C9.09099 7.1711 9.00885 7.51908 8.85106 7.83466C8.69327 8.15024 8.46417 8.42475 8.1819 8.63645L7.65009 9.03531C7.44147 9.1946 7.29443 9.4212 7.23394 9.67662C7.17345 9.93203 7.20325 10.2005 7.31827 10.4364C8.87131 13.5908 11.4256 16.1419 14.5819 17.691Z" stroke="white" stroke-width="2.2342" stroke-linecap="round" stroke-linejoin="round"/>
</svg>
