<svg width="30" height="30" viewBox="0 0 30 30" fill="none" xmlns="http://www.w3.org/2000/svg">
<path d="M17.4982 21.2291C17.7798 21.3584 18.0971 21.388 18.3978 21.3129C18.6984 21.2378 18.9645 21.0625 19.1523 20.8159L19.6364 20.1818C19.8904 19.8431 20.2198 19.5682 20.5985 19.3788C20.9772 19.1895 21.3948 19.0909 21.8182 19.0909H25.9091C26.6324 19.0909 27.3261 19.3782 27.8375 19.8897C28.349 20.4012 28.6363 21.0949 28.6363 21.8182V25.9091C28.6363 26.6324 28.349 27.3261 27.8375 27.8375C27.3261 28.349 26.6324 28.6363 25.9091 28.6363C19.3992 28.6363 13.156 26.0503 8.55285 21.4472C3.94969 16.844 1.36366 10.6008 1.36366 4.09093C1.36366 3.36761 1.651 2.67392 2.16246 2.16246C2.67392 1.651 3.36761 1.36366 4.09093 1.36366H8.18183C8.90515 1.36366 9.59884 1.651 10.1103 2.16246C10.6218 2.67392 10.9091 3.36761 10.9091 4.09093V8.18183C10.9091 8.60523 10.8105 9.02281 10.6212 9.4015C10.4318 9.7802 10.1569 10.1096 9.81819 10.3636L9.18001 10.8423C8.92967 11.0334 8.75322 11.3054 8.68064 11.6118C8.60805 11.9183 8.64381 12.2405 8.78183 12.5236C10.6455 16.3089 13.7106 19.3702 17.4982 21.2291Z" stroke="white" stroke-width="2.66304" stroke-linecap="round" stroke-linejoin="round"/>
</svg>
